<?xml version="1.0" encoding="UTF-8"?><svg version="1.1" width="24px" height="24px" viewBox="0 0 24.0 24.0" xmlns="http://www.w3.org/2000/svg" xmlns:xlink="http://www.w3.org/1999/xlink"><defs><clipPath id="i0"><path d="M539,0 L539,1081 L0,1081 L0,0 L539,0 Z"></path></clipPath></defs><g transform="translate(-185.0 -528.0)"><g clip-path="url(#i0)"><g transform="translate(185.0 528.0)"><g transform="translate(3.5999999999999996 3.5999999999999996)"><path d="M15.4,0 L1.4,0 C0.626803333,0 0,0.626803333 0,1.4 L0,15.4 C0,16.17322 0.626803333,16.8 1.4,16.8 L15.4,16.8 C16.17322,16.8 16.8,16.17322 16.8,15.4 L16.8,1.4 C16.8,0.626803333 16.17322,0 15.4,0 Z" stroke="#3370ff" stroke-width="1.44" fill="none" stroke-miterlimit="10"></path><g transform="translate(2.7999999999999994 6.0666666666666655)"><polygon points="5.6,0 0,0 0,4.66666667 5.6,4.66666667 5.6,0 5.6,0" stroke="#3370ff" stroke-width="1.44" fill="none" stroke-linejoin="round"></polygon></g><g transform="translate(11.200000000000001 5.6)"><polygon points="2.33333333,0 0,1.86666667 0,3.73333333 2.33333333,5.6 2.33333333,0 2.33333333,0" stroke="#3370ff" stroke-width="1.44" fill="none" stroke-linejoin="round"></polygon></g></g></g></g></g></svg>
