<?xml version="1.0" encoding="UTF-8"?><svg version="1.1" width="24px" height="24px" viewBox="0 0 24.0 24.0" xmlns="http://www.w3.org/2000/svg" xmlns:xlink="http://www.w3.org/1999/xlink"><defs><clipPath id="i0"><path d="M539,0 L539,1081 L0,1081 L0,0 L539,0 Z"></path></clipPath><clipPath id="i1"><path d="M1.05,0 C1.629894,0 2.1,0.471908582 2.1,1.05402614 C2.1,1.63614369 1.629894,2.10805227 1.05,2.10805227 C0.470106,2.10805227 0,1.63614369 0,1.05402614 C0,0.471908582 0.470106,0 1.05,0 Z"></path></clipPath></defs><g transform="translate(-287.0 -528.0)"><g clip-path="url(#i0)"><g transform="translate(287.0 528.0)"><g transform="translate(3.599999999999909 4.199999999999989)"><g transform="translate(0.0 10.119064089653847)"><polygon points="16.8,0 0,0 0,5.48093591 16.8,5.48093591 16.8,0 16.8,0" stroke="#70bbff" stroke-width="1.44" fill="none" stroke-linejoin="round"></polygon></g><g transform="translate(12.179999999999609 11.805505908221875)"><g clip-path="url(#i1)"><polygon points="0,0 2.1,0 2.1,2.10805227 0,2.10805227 0,0" stroke="none" fill="#70bbff"></polygon></g></g><path d="M0,10.1189798 L2.1161154,0 L14.70861,0 L16.8,10.1189798" stroke="#70bbff" stroke-width="1.44" fill="none" stroke-linejoin="round"></path><g transform="translate(4.620000000000346 4.649047890082926)"><path d="M1.68252,0 C0.78267,0 0,0.626723941 0,1.47011349 C0,2.51865869 0.879774,2.94026915 1.972866,2.94026915 C2.160354,2.94026915 2.333814,2.94026915 2.510256,2.94026915" stroke="#70bbff" stroke-width="1.44" fill="none" stroke-linecap="round" stroke-linejoin="round"></path></g><g transform="translate(9.654581999999664 4.649047890082926)"><path d="M0.848358,0 C1.729056,0 2.525418,0.410437778 2.525418,1.47011349 C2.525418,2.51865869 1.639302,2.94026915 0.546252,2.94026915 C0.358722,2.94026915 0.173964,2.94026915 0,2.94026915" stroke="#70bbff" stroke-width="1.44" fill="none" stroke-linecap="round" stroke-linejoin="round"></path></g><g transform="translate(6.30247799999961 2.5300759060976077)"><path d="M4.20042,2.11905631 C4.20042,0.861055032 3.367224,0 2.097438,0 C0.827694,0 0,0.840143153 0,2.11905631" stroke="#70bbff" stroke-width="1.44" fill="none" stroke-linecap="round" stroke-linejoin="round"></path></g><g transform="translate(6.720000000000481 7.378596134480773)"><path d="M0,0.210805227 L3.36,0.210805227" stroke="#70bbff" stroke-width="1.44" fill="none" stroke-miterlimit="10"></path></g></g></g></g></g></svg>
