<?xml version="1.0" encoding="UTF-8"?><svg version="1.1" width="24px" height="24px" viewBox="0 0 24.0 24.0" xmlns="http://www.w3.org/2000/svg" xmlns:xlink="http://www.w3.org/1999/xlink"><defs><clipPath id="i0"><path d="M539,0 L539,1081 L0,1081 L0,0 L539,0 Z"></path></clipPath></defs><g transform="translate(-151.0 -528.0)"><g clip-path="url(#i0)"><g transform="translate(151.0 528.0)"><g transform="translate(3.0 4.2)"><g transform="translate(11.842105263157894 8.71764705882353)"><path d="M0,4.58823529 L2.36842105,2.29411765 L0.000189473684,0" stroke="#3370ff" stroke-width="1.44" fill="none" stroke-linecap="round" stroke-linejoin="round"></path></g><g transform="translate(15.631578947368414 8.71764705882353)"><path d="M0,4.58823529 L2.36842105,2.29411765 L0.000189473684,0" stroke="#3370ff" stroke-width="1.44" fill="none" stroke-linecap="round" stroke-linejoin="round"></path></g><path d="M18,6.88235294 L18,0.917647059 C18,0.410844353 17.5758632,0 17.0526316,0 L0.947368421,0 C0.424151053,0 0,0.410844353 0,0.917647059 L0,14.6823529 C0,15.1891694 0.424151053,15.6 0.947368421,15.6 L11.1176526,15.6" stroke="#3370ff" stroke-width="1.44" fill="none" stroke-linecap="round" stroke-linejoin="round"></path><g transform="translate(3.789473684210525 3.670588235294118)"><path d="M0,0 L2.36842105,2.75294118 L4.73684211,0" stroke="#3370ff" stroke-width="1.44" fill="none" stroke-linecap="round" stroke-linejoin="round"></path></g><g transform="translate(3.31578947368421 8.947058823529412)"><path d="M0,0.229411765 L5.68421053,0.229411765" stroke="#3370ff" stroke-width="1.44" fill="none" stroke-linecap="round" stroke-linejoin="round"></path></g><g transform="translate(3.31578947368421 6.194117647058824)"><path d="M0,0.229411765 L5.68421053,0.229411765" stroke="#3370ff" stroke-width="1.44" fill="none" stroke-linecap="round" stroke-linejoin="round"></path></g><g transform="translate(5.921052631578947 6.423529411764704)"><path d="M0.236842105,0 L0.236842105,5.50588235" stroke="#3370ff" stroke-width="1.44" fill="none" stroke-linecap="round" stroke-linejoin="round"></path></g></g></g></g></g></svg>
