<?xml version="1.0" encoding="UTF-8"?><svg version="1.1" width="24px" height="24px" viewBox="0 0 24.0 24.0" xmlns="http://www.w3.org/2000/svg" xmlns:xlink="http://www.w3.org/1999/xlink"><defs><clipPath id="i0"><path d="M539,0 L539,1081 L0,1081 L0,0 L539,0 Z"></path></clipPath></defs><g transform="translate(-117.0 -528.0)"><g clip-path="url(#i0)"><g transform="translate(117.0 528.0)"><g transform="translate(3.0 3.0)"><path d="M9,18 C13.970565,18 18,13.970565 18,9 C18,4.029435 13.970565,0 9,0 C4.029435,0 0,4.029435 0,9 C0,13.970565 4.029435,18 9,18 Z" stroke="#3370ff" stroke-width="1.44" fill="none" stroke-linejoin="round"></path><g transform="translate(6.300000000000001 7.875)"><path d="M0,0.225 L5.4,0.225" stroke="#3370ff" stroke-width="1.44" fill="none" stroke-linecap="round" stroke-linejoin="round"></path></g><g transform="translate(6.300000000000001 10.575)"><path d="M0,0.225 L5.4,0.225" stroke="#3370ff" stroke-width="1.44" fill="none" stroke-linecap="round" stroke-linejoin="round"></path></g><g transform="translate(8.778735 8.1)"><path d="M0.225,0 L0.225,5.4" stroke="#3370ff" stroke-width="1.44" fill="none" stroke-linecap="round" stroke-linejoin="round"></path></g><g transform="translate(6.300000000000001 4.95)"><path d="M5.4,0 L2.7,2.7 L0,0" stroke="#3370ff" stroke-width="1.44" fill="none" stroke-linecap="round" stroke-linejoin="round"></path></g></g></g></g></g></svg>
