<?xml version="1.0" encoding="UTF-8"?><svg version="1.1" width="24px" height="24px" viewBox="0 0 24.0 24.0" xmlns="http://www.w3.org/2000/svg" xmlns:xlink="http://www.w3.org/1999/xlink"><defs><clipPath id="i0"><path d="M539,0 L539,1081 L0,1081 L0,0 L539,0 Z"></path></clipPath></defs><g transform="translate(-83.0 -528.0)"><g clip-path="url(#i0)"><g transform="translate(83.0 528.0)"><g transform="translate(3.599999999999909 4.199999999999989)"><g transform="translate(3.3600084000206603 0.0)"><path d="M2.94000735,6.06664981 C4.56373141,6.06664981 5.8800147,4.70858692 5.8800147,3.03332491 C5.8800147,1.35806723 4.56373141,0 2.94000735,0 C1.31628329,0 0,1.35806723 0,3.03332491 C0,4.70858692 1.31628329,6.06664981 2.94000735,6.06664981 Z" stroke="#3370ff" stroke-width="1.44" fill="none" stroke-linecap="round" stroke-linejoin="round"></path></g><g transform="translate(12.015264038160467 0.43333212963298706)"><path d="M0,0 C0.853778134,0.530788526 1.42481156,1.49659918 1.42481156,2.59999278 C1.42481156,3.70338638 0.853778134,4.66919703 0,5.19998556" stroke="#3370ff" stroke-width="1.44" fill="none" stroke-linecap="round" stroke-linejoin="round"></path></g><g transform="translate(0.0 9.533306851925403)"><path d="M0,5.54665126 L0,6.06664981 L12.6000315,6.06664981 L12.6000315,5.54665126 C12.6000315,3.60514999 12.6000315,2.63439935 12.2338326,1.89283808 C11.9116918,1.24054322 11.3976525,0.710188027 10.7654249,0.377822284 C10.0466771,0 9.10579076,0 7.22401806,0 L5.37601344,0 C3.49424074,0 2.55335438,0 1.83459819,0.377822284 C1.20237061,0.710188027 0.688352321,1.24054322 0.366219916,1.89283808 C0,2.63439935 0,3.60514999 0,5.54665126 Z" stroke="#3370ff" stroke-width="1.44" fill="none" stroke-linecap="round" stroke-linejoin="round"></path></g><g transform="translate(14.96539341348398 9.911215802178333)"><path d="M1.83460659,5.6887842 L1.83460659,5.16878564 C1.83460659,3.22728437 1.83460659,2.25653373 1.46840767,1.51497246 C1.14626687,0.862677604 0.632227581,0.332365743 0,0" stroke="#3370ff" stroke-width="1.44" fill="none" stroke-linecap="round" stroke-linejoin="round"></path></g></g></g></g></g></svg>
