<?xml version="1.0" encoding="UTF-8"?><svg version="1.1" width="20px" height="20px" viewBox="0 0 20.0 20.0" xmlns="http://www.w3.org/2000/svg" xmlns:xlink="http://www.w3.org/1999/xlink"><defs><clipPath id="i0"><path d="M539,0 L539,1081 L0,1081 L0,0 L539,0 Z"></path></clipPath></defs><g transform="translate(-113.0 -803.0)"><g clip-path="url(#i0)"><g transform="translate(113.0 803.0)"><g transform="translate(3.0 3.0)"><g transform="translate(1.0499999999999554 5.530864197530889)"><polygon points="11.9,8.2962963 11.9,0 0,0 0,8.2962963 11.9,8.2962963 11.9,8.2962963" stroke="#8A8E9A" stroke-width="1.5" fill="none" stroke-linecap="round" stroke-linejoin="round"></polygon></g><g transform="translate(6.825000000000045 5.530864197530889)"><path d="M0.175,8.2962963 L0.175,0" stroke="#8A8E9A" stroke-width="1.5" fill="none" stroke-linecap="round" stroke-linejoin="round"></path></g><g transform="translate(1.0499999999999554 13.65432098765433)"><path d="M11.9,0.172839506 L0,0.172839506" stroke="#8A8E9A" stroke-width="1.5" fill="none" stroke-linecap="round" stroke-linejoin="round"></path></g><g transform="translate(0.0 2.765432098765416)"><polygon points="0,0 14,0 14,2.7654321 0,2.7654321 0,0 0,0" stroke="#8A8E9A" stroke-width="1.5" fill="none" stroke-linejoin="round"></polygon></g><g transform="translate(4.200000000000045 0.0)"><path d="M0,0 L2.8,2.7654321 L5.6,0" stroke="#8A8E9A" stroke-width="1.5" fill="none" stroke-linecap="round" stroke-linejoin="round"></path></g></g></g></g></g></svg>