<?xml version="1.0" encoding="UTF-8"?><svg version="1.1" width="12px" height="12px" viewBox="0 0 12.0 12.0" xmlns="http://www.w3.org/2000/svg" xmlns:xlink="http://www.w3.org/1999/xlink"><defs><clipPath id="i0"><path d="M539,0 L539,1081 L0,1081 L0,0 L539,0 Z"></path></clipPath><clipPath id="i1"><path d="M8.15,0 C8.78513527,0 9.3,0.51487066 9.3,1.15 L9.3,8.15 C9.3,8.78513814 8.78513814,9.3 8.15,9.3 L1.15,9.3 C0.51487066,9.3 0,8.78513527 0,8.15 L0,1.15 C0,0.514873529 0.514873529,0 1.15,0 L8.15,0 Z M6.66513528,3.16513528 L5.2146,4.6152 L4.57404275,3.49340414 C4.42682937,3.23578074 4.07494662,3.18865728 3.86513528,3.39846862 L1.99846862,5.26513528 C1.82273268,5.44087121 1.82273268,5.72579545 1.99846862,5.90153138 L2.04893967,5.94510228 C2.22510657,6.07581495 2.47510478,6.06129132 2.63486472,5.90153138 L4.0848,4.4508 L4.72595725,5.57326252 C4.87317063,5.83088592 5.22505338,5.87800939 5.43486472,5.66819805 L7.30153138,3.80153138 C7.47726732,3.62579545 7.47726732,3.34087121 7.30153138,3.16513528 C7.12579545,2.98939935 6.84087121,2.98939935 6.66513528,3.16513528 Z"></path></clipPath></defs><g transform="translate(-80.0 -426.0)"><g clip-path="url(#i0)"><g transform="translate(80.0 426.0)"><g transform="translate(1.3500000000000112 1.3500000000001817)"><g clip-path="url(#i1)"><polygon points="0,0 9.3,0 9.3,9.3 0,9.3 0,0" stroke="none" fill="#FFFFFF"></polygon></g></g></g></g></g></svg>
