<?xml version="1.0" encoding="UTF-8"?><svg version="1.1" width="24px" height="24px" viewBox="0 0 24.0 24.0" xmlns="http://www.w3.org/2000/svg" xmlns:xlink="http://www.w3.org/1999/xlink"><defs><clipPath id="i0"><path d="M539,0 L539,1081 L0,1081 L0,0 L539,0 Z"></path></clipPath><clipPath id="i1"><path d="M13.7142857,0 C14.6610702,0 15.4285714,0.767509191 15.4285714,1.71428571 L15.4285714,3.85714286 L17.4857143,2.31428571 C18.0104125,1.92076203 18.7431785,2.24029694 18.8451823,2.85347554 L18.8571429,3 L18.8571429,12.8571429 C18.8571429,13.5634674 18.0507739,13.9666519 17.4857143,13.5428571 L15.4285714,12 L15.4285714,13.7142857 C15.4285714,14.593445 14.7667995,15.318014 13.9142101,15.4170384 L13.7142857,15.4285714 L1.71428571,15.4285714 C0.767509191,15.4285714 0,14.6610702 0,13.7142857 L0,1.71428571 C0,0.767511643 0.767511643,0 1.71428571,0 L13.7142857,0 Z M6.42857143,3.42857143 C4.77171718,3.42857143 3.42857143,4.77171718 3.42857143,6.42857143 C3.42857143,8.08542568 4.77171718,9.42857143 6.42857143,9.42857143 C8.08542568,9.42857143 9.42857143,8.08542568 9.42857143,6.42857143 C9.42857143,4.77171718 8.08542568,3.42857143 6.42857143,3.42857143 Z"></path></clipPath></defs><g transform="translate(-84.0 -312.0)"><g clip-path="url(#i0)"><g transform="translate(84.0 312.0)"><g transform="translate(2.571428571428571 4.285714285714285)"><g clip-path="url(#i1)"><polygon points="0,0 18.8571429,0 18.8571429,15.4285714 0,15.4285714 0,0" stroke="none" fill="#B9BECD"></polygon></g></g></g></g></g></svg>
