<?xml version="1.0" encoding="UTF-8"?><svg version="1.1" width="20px" height="20px" viewBox="0 0 20.0 20.0" xmlns="http://www.w3.org/2000/svg" xmlns:xlink="http://www.w3.org/1999/xlink"><defs><clipPath id="i0"><path d="M539,0 L539,1081 L0,1081 L0,0 L539,0 Z"></path></clipPath></defs><g transform="translate(-233.0 -803.0)"><g clip-path="url(#i0)"><g transform="translate(233.0 803.0)"><g transform="translate(3.0 3.0)"><path d="M3.88888889,0 L0.777777778,0 C0.348222778,0 0,0.348222778 0,0.777777778 L0,3.88888889" stroke="#8A8E9A" stroke-width="1.5" fill="none" stroke-linecap="round" stroke-linejoin="round"></path><g transform="translate(0.0 10.11111111111111)"><path d="M3.88888889,3.88888889 L0.777777778,3.88888889 C0.348222778,3.88888889 0,3.54067778 0,3.11111111 L0,0" stroke="#8A8E9A" stroke-width="1.5" fill="none" stroke-linecap="round" stroke-linejoin="round"></path></g><g transform="translate(10.11111111111111 10.11111111111111)"><path d="M0,3.88888889 L3.11111111,3.88888889 C3.54067778,3.88888889 3.88888889,3.54067778 3.88888889,3.11111111 L3.88888889,0" stroke="#8A8E9A" stroke-width="1.5" fill="none" stroke-linecap="round" stroke-linejoin="round"></path></g><g transform="translate(10.11111111111111 0.0)"><path d="M0,0 L3.11111111,0 C3.54067778,0 3.88888889,0.348222778 3.88888889,0.777777778 L3.88888889,3.88888889" stroke="#8A8E9A" stroke-width="1.5" fill="none" stroke-linecap="round" stroke-linejoin="round"></path></g><g transform="translate(6.805555555555555 3.888888888888889)"><path d="M0.194444444,0 L0.194444444,6.22222222" stroke="#8A8E9A" stroke-width="1.5" fill="none" stroke-linecap="round" stroke-linejoin="round"></path></g><g transform="translate(9.916666666666666 3.888888888888889)"><path d="M0.194444444,0 L0.194444444,6.22222222" stroke="#8A8E9A" stroke-width="1.5" fill="none" stroke-linecap="round" stroke-linejoin="round"></path></g><g transform="translate(3.694444444444445 3.888888888888889)"><path d="M0.194444444,0 L0.194444444,6.22222222" stroke="#8A8E9A" stroke-width="1.5" fill="none" stroke-linecap="round" stroke-linejoin="round"></path></g></g></g></g></g></svg>