<?xml version="1.0" encoding="UTF-8"?><svg version="1.1" width="20px" height="20px" viewBox="0 0 20.0 20.0" xmlns="http://www.w3.org/2000/svg" xmlns:xlink="http://www.w3.org/1999/xlink"><defs><clipPath id="i0"><path d="M539,0 L539,1081 L0,1081 L0,0 L539,0 Z"></path></clipPath></defs><g transform="translate(-143.0 -803.0)"><g clip-path="url(#i0)"><g transform="translate(143.0 803.0)"><g transform="translate(2.0 2.5)"><g transform="translate(2.0 4.736842105263169)"><path d="M0.8,0 L11.2,0 C11.6418278,-7.54983982e-16 12,0.3581722 12,0.8 L12,9.46315789 C12,9.90498569 11.6418278,10.2631579 11.2,10.2631579 L0.8,10.2631579 C0.3581722,10.2631579 -1.82073632e-16,9.90498569 0,9.46315789 L0,0.8 C1.67936305e-16,0.3581722 0.3581722,-5.69140024e-17 0.8,0 Z" stroke="#8A8E9A" stroke-width="1.5" fill="none" stroke-linecap="round" stroke-linejoin="round"></path></g><g transform="translate(9.600000000000364 1.578947368421047)"><path d="M2,0 L0,3.15789474" stroke="#8A8E9A" stroke-width="1.5" fill="none" stroke-linecap="round" stroke-linejoin="round"></path></g><g transform="translate(4.399999999999636 1.578947368421047)"><path d="M0,0 L2,3.15789474" stroke="#8A8E9A" stroke-width="1.5" fill="none" stroke-linecap="round" stroke-linejoin="round"></path></g><g transform="translate(11.19999999999982 0.0)"><path d="M0.8,1.57894737 C1.2418278,1.57894737 1.6,1.22548796 1.6,0.789473684 C1.6,0.353459408 1.2418278,0 0.8,0 C0.3581722,0 0,0.353459408 0,0.789473684 C0,1.22548796 0.3581722,1.57894737 0.8,1.57894737 Z" stroke="#8A8E9A" stroke-width="1.5" fill="none" stroke-miterlimit="10"></path></g><g transform="translate(3.199999999999818 0.0)"><path d="M0.8,1.57894737 C1.2418278,1.57894737 1.6,1.22548796 1.6,0.789473684 C1.6,0.353459408 1.2418278,0 0.8,0 C0.3581722,0 0,0.353459408 0,0.789473684 C0,1.22548796 0.3581722,1.57894737 0.8,1.57894737 Z" stroke="#8A8E9A" stroke-width="1.5" fill="none" stroke-miterlimit="10"></path></g><g transform="translate(4.800000000000181 7.499999999999994)"><path d="M1.57894737,0 L4.82105263,0 C5.69308118,1.75517037e-16 6.4,0.706918816 6.4,1.57894737 C6.4,2.45097592 5.69308118,3.15789474 4.82105263,3.15789474 L1.57894737,3.15789474 C0.706918816,3.15789474 5.33963488e-17,2.45097592 0,1.57894737 C-1.06792698e-16,0.706918816 0.706918816,3.28837302e-16 1.57894737,0 Z" stroke="#8A8E9A" stroke-width="1.5" fill="none" stroke-miterlimit="10"></path></g><g transform="translate(0.0 7.499999999999995)"><path d="M2,0 L0,0 L0,3.94736842 L2,3.94736842" stroke="#8A8E9A" stroke-width="1.5" fill="none" stroke-linecap="round" stroke-linejoin="round"></path></g><g transform="translate(14.0 7.499999999999995)"><path d="M0,0 L2,0 L2,3.94736842 L0,3.94736842" stroke="#8A8E9A" stroke-width="1.5" fill="none" stroke-linecap="round" stroke-linejoin="round"></path></g></g></g></g></g></svg>