<?xml version="1.0" encoding="UTF-8"?><svg version="1.1" width="20px" height="20px" viewBox="0 0 20.0 20.0" xmlns="http://www.w3.org/2000/svg" xmlns:xlink="http://www.w3.org/1999/xlink"><defs><clipPath id="i0"><path d="M539,0 L539,1081 L0,1081 L0,0 L539,0 Z"></path></clipPath><clipPath id="i1"><path d="M1.015625,0 C1.57653438,0 2.03125,0.44772 2.03125,1 C2.03125,1.55228 1.57653438,2 1.015625,2 C0.454715625,2 0,1.55228 0,1 C0,0.44772 0.454715625,0 1.015625,0 Z"></path></clipPath></defs><g transform="translate(-173.0 -803.0)"><g clip-path="url(#i0)"><g transform="translate(173.0 803.0)"><g transform="translate(3.5 2.0)"><path d="M0.8125,16 L12.1875,16 C12.6362437,16 13,15.64184 13,15.2 L13,4 L8.9375,4 L8.9375,0 L0.8125,0 C0.363768437,0 0,0.358172 0,0.8 L0,15.2 C0,15.64184 0.363768437,16 0.8125,16 Z" stroke="#8A8E9A" stroke-width="1.5" fill="none" stroke-linecap="round" stroke-linejoin="round"></path><g transform="translate(8.9375 0.0)"><path d="M0,0 L4.0625,4" stroke="#8A8E9A" stroke-width="1.5" fill="none" stroke-linecap="round" stroke-linejoin="round"></path></g><g transform="translate(6.296875 6.0)"><path d="M0.203125,0 L0.203125,4" stroke="#8A8E9A" stroke-width="1.5" fill="none" stroke-linecap="round" stroke-linejoin="round"></path></g><g transform="translate(5.484375 12.0)"><g clip-path="url(#i1)"><polygon points="0,0 2.03125,0 2.03125,2 0,2 0,0" stroke="none" fill="#8A8E9A"></polygon></g></g></g></g></g></g></svg>