<?xml version="1.0" encoding="UTF-8"?><svg version="1.1" width="20px" height="20px" viewBox="0 0 20.0 20.0" xmlns="http://www.w3.org/2000/svg" xmlns:xlink="http://www.w3.org/1999/xlink"><defs><clipPath id="i0"><path d="M539,0 L539,1081 L0,1081 L0,0 L539,0 Z"></path></clipPath></defs><g transform="translate(-83.0 -803.0)"><g clip-path="url(#i0)"><g transform="translate(83.0 803.0)"><g transform="translate(2.5 2.5)"><path d="M15,4.5 C15,6.985275 12.985275,9 10.5,9 C9.7399875,9 9.0239625,8.8115625 8.3961,8.4789 L1.875,15 L0,13.125 L6.5211,6.6039 C6.1884375,5.9760375 6,5.2600125 6,4.5 C6,2.0147175 8.014725,0 10.5,0 C11.2600125,0 11.9760375,0.18841875 12.6039,0.52109625 L9.75,3.375 L11.625,5.25 L14.4789,2.3961 C14.8115625,3.0239625 15,3.7399875 15,4.5 Z" stroke="#8A8E9A" stroke-width="1.5" fill="none" stroke-linecap="round" stroke-linejoin="round"></path></g></g></g></g></svg>