<?xml version="1.0" encoding="UTF-8"?><svg version="1.1" width="12px" height="12px" viewBox="0 0 12.0 12.0" xmlns="http://www.w3.org/2000/svg" xmlns:xlink="http://www.w3.org/1999/xlink"><defs><clipPath id="i0"><path d="M539,0 L539,1081 L0,1081 L0,0 L539,0 Z"></path></clipPath><clipPath id="i1"><path d="M5.25,0 C6.66093548,0 7.98437848,0.559770185 8.96230381,1.53769011 C9.94022702,2.51562413 10.5,3.83906669 10.5,5.25 C10.5,6.66093516 9.94022547,7.98437864 8.96230205,8.96230205 C7.98437864,9.94022547 6.66093516,10.5 5.25,10.5 C3.83906669,10.5 2.51562413,9.94022702 1.53768747,8.96230117 C0.559770185,7.98437848 0,6.66093548 0,5.25 C0,3.83906637 0.55976863,2.51562428 1.53769099,1.53768571 C2.51562428,0.55976863 3.83906637,0 5.25,0 Z M5.37,3.84 L4.89,3.84 C4.64147186,3.84 4.44,4.04147186 4.44,4.29 L4.44410797,4.35106233 C4.47390542,4.57070767 4.66218254,4.74 4.89,4.74 L4.92,4.74 L4.92,7.199 L4.53,7.2 C4.28147186,7.2 4.08,7.40147186 4.08,7.65 C4.08,7.89852814 4.28147186,8.1 4.53,8.1 L5.36,8.099 L5.37,8.1 L6.21,8.1 C6.45852814,8.1 6.66,7.89852814 6.66,7.65 C6.66,7.40147186 6.45852814,7.2 6.21,7.2 L5.82,7.199 L5.82,4.29 C5.82,4.04147186 5.61852814,3.84 5.37,3.84 Z M5.25,2.13 C4.918632,2.13 4.65,2.398632 4.65,2.73 C4.65,3.061368 4.918632,3.33 5.25,3.33 C5.581368,3.33 5.85,3.061368 5.85,2.73 C5.85,2.398632 5.581368,2.13 5.25,2.13 Z"></path></clipPath></defs><g transform="translate(-102.0 -426.0)"><g clip-path="url(#i0)"><g transform="translate(102.0 426.0)"><g transform="translate(0.75 0.75)"><g clip-path="url(#i1)"><polygon points="0,0 10.5,0 10.5,10.5 0,10.5 0,0" stroke="none" fill="#FFFFFF"></polygon></g></g></g></g></g></svg>
