<?xml version="1.0" encoding="UTF-8"?><svg version="1.1" width="52px" height="52px" viewBox="0 0 52.0 52.0" xmlns="http://www.w3.org/2000/svg" xmlns:xlink="http://www.w3.org/1999/xlink"><defs><clipPath id="i0"><path d="M1280,0 L1280,1394 L0,1394 L0,0 L1280,0 Z"></path></clipPath><clipPath id="i1"><path d="M12.025,0 L12.025,20.626 L2.4353644,20.6266667 C1.09034978,20.6266667 -3.61730818e-16,19.5363169 0,18.1913023 L0,2.4353644 C-6.08805994e-16,1.09034978 1.09034978,-2.79372425e-16 2.4353644,0 L12.025,0 Z M25.891,0 L25.891,20.626 L13.758,20.626 L13.758,0 L25.891,0 Z M38.0813023,0 C39.4263169,-2.47075177e-16 40.5166667,1.09034978 40.5166667,2.4353644 L40.5166667,18.1913023 C40.5166667,19.5363169 39.4263169,20.6266667 38.0813023,20.6266667 L27.625,20.626 L27.625,0 L38.0813023,0 Z"></path></clipPath></defs><g transform="translate(-679.0 -343.0)"><g clip-path="url(#i0)"><g transform="translate(220.0 309.0)"><g transform="translate(396.0 26.0)"><g transform="translate(63.0 8.0)"><g transform="translate(38.56666666666667 3.9000000000000057) rotate(90.0)"><path d="M2.4353644,0 L41.7646356,0 C43.1096502,-3.38682484e-15 44.2,1.09034978 44.2,2.4353644 L44.2,21.8313023 C44.2,23.1763169 43.1096502,24.2666667 41.7646356,24.2666667 L2.4353644,24.2666667 C1.09034978,24.2666667 3.19098286e-15,23.1763169 0,21.8313023 L0,2.4353644 C-1.64716784e-16,1.09034978 1.09034978,-2.79372425e-16 2.4353644,0 Z" stroke="#B9BECD" stroke-width="0.608841099" fill="none" stroke-miterlimit="10"></path><g transform="translate(1.8416666666666686 1.8200000000000198)"><g clip-path="url(#i1)"><polygon points="0,0 40.5166667,0 40.5166667,20.6266667 0,20.6266667 0,0" stroke="none" fill="#B9BECD"></polygon></g></g></g></g></g></g></g></g></svg>