<?xml version="1.0" encoding="UTF-8"?><svg version="1.1" width="24px" height="24px" viewBox="0 0 24.0 24.0" xmlns="http://www.w3.org/2000/svg" xmlns:xlink="http://www.w3.org/1999/xlink"><defs><clipPath id="i0"><path d="M539,0 L539,1081 L0,1081 L0,0 L539,0 Z"></path></clipPath><clipPath id="i1"><path d="M9.42857143,0 C14.6334627,0 18.8571429,4.17153598 18.8571429,9.32275132 C18.8571429,12.4655981 17.2849058,15.2437657 14.8768361,16.9323445 L18,16.9312169 C18.4733869,16.9312169 18.8571429,17.3149729 18.8571429,17.7883598 C18.8571429,18.2617467 18.4733869,18.6455026 18,18.6455026 L9.42857143,18.6455026 C4.22368018,18.6455026 0,14.4739667 0,9.32275132 C0,4.17153598 4.22368018,0 9.42857143,0 Z M9.42857143,11.005291 C8.2474516,11.005291 7.28571429,11.955155 7.28571429,13.1322751 C7.28571429,14.3093952 8.2474516,15.2592593 9.42857143,15.2592593 C10.6096913,15.2592593 11.5714286,14.3093952 11.5714286,13.1322751 C11.5714286,11.955155 10.6096913,11.005291 9.42857143,11.005291 Z M5.57142857,7.1957672 C4.39030875,7.1957672 3.42857143,8.14563121 3.42857143,9.32275132 C3.42857143,10.4998714 4.39030875,11.4497354 5.57142857,11.4497354 C6.7525484,11.4497354 7.71428571,10.4998714 7.71428571,9.32275132 C7.71428571,8.14563121 6.7525484,7.1957672 5.57142857,7.1957672 Z M13.2857143,7.1957672 C12.1045945,7.1957672 11.1428571,8.14563121 11.1428571,9.32275132 C11.1428571,10.4998714 12.1045945,11.4497354 13.2857143,11.4497354 C14.4668341,11.4497354 15.4285714,10.4998714 15.4285714,9.32275132 C15.4285714,8.14563121 14.4668341,7.1957672 13.2857143,7.1957672 Z M9.42857143,3.38624339 C8.2474516,3.38624339 7.28571429,4.3361074 7.28571429,5.51322751 C7.28571429,6.69034762 8.2474516,7.64021164 9.42857143,7.64021164 C10.6096913,7.64021164 11.5714286,6.69034762 11.5714286,5.51322751 C11.5714286,4.3361074 10.6096913,3.38624339 9.42857143,3.38624339 Z"></path></clipPath></defs><g transform="translate(-118.0 -312.0)"><g clip-path="url(#i0)"><g transform="translate(118.0 312.0)"><g transform="translate(2.571428571428571 2.571428571429074)"><g clip-path="url(#i1)"><polygon points="0,0 18.8571429,0 18.8571429,18.6455026 0,18.6455026 0,0" stroke="none" fill="#C687FF"></polygon></g></g></g></g></g></svg>