<?xml version="1.0" encoding="UTF-8"?><svg version="1.1" width="24px" height="24px" viewBox="0 0 24.0 24.0" xmlns="http://www.w3.org/2000/svg" xmlns:xlink="http://www.w3.org/1999/xlink"><defs><clipPath id="i0"><path d="M539,0 L539,1081 L0,1081 L0,0 L539,0 Z"></path></clipPath></defs><g transform="translate(-219.0 -528.0)"><g clip-path="url(#i0)"><g transform="translate(219.0 528.0)"><g transform="translate(3.0 3.5999999999999943)"><g transform="translate(5.318181818181529 0.0)"><path d="M3.68181818,7.46666667 C5.71523022,7.46666667 7.36363636,5.7951964 7.36363636,3.73333333 C7.36363636,1.67147027 5.71523022,0 3.68181818,0 C1.64840615,0 0,1.67147027 0,3.73333333 C0,5.7951964 1.64840615,7.46666667 3.68181818,7.46666667 Z" stroke="#ca8eff" stroke-width="1.44" fill="none" stroke-linejoin="round"></path></g><g transform="translate(1.2272727272725215 9.125925925925912)"><path d="M0,7.46666667 C0,3.96666667 2.52613636,0.7 4.66363636,0 C4.66363636,0 6.60681818,2.1 7.77272727,3.5 L10.8818182,0 C12.6306818,0.233333333 15.5454545,3.96666667 15.5454545,7.46666667" stroke="#ca8eff" stroke-width="1.44" fill="none" stroke-linejoin="round"></path></g><g transform="translate(0.0 16.38518518518518)"><path d="M0,0.207407407 L18,0.207407407" stroke="#ca8eff" stroke-width="1.44" fill="none" stroke-linecap="round" stroke-linejoin="round"></path></g></g></g></g></g></svg>
