<?xml version="1.0" encoding="UTF-8"?><svg version="1.1" width="24px" height="24px" viewBox="0 0 24.0 24.0" xmlns="http://www.w3.org/2000/svg" xmlns:xlink="http://www.w3.org/1999/xlink"><defs><clipPath id="i0"><path d="M539,0 L539,1081 L0,1081 L0,0 L539,0 Z"></path></clipPath></defs><g transform="translate(-253.0 -528.0)"><g clip-path="url(#i0)"><g transform="translate(253.0 528.0)"><g transform="translate(2.4987341772143736 3.5999999999999943)"><g transform="translate(5.181265822784554 0.00019907857799239537)"><path d="M3.55443038,7.31309062 C5.51748807,7.31309062 7.10886076,5.67599952 7.10886076,3.65654531 C7.10886076,1.6370911 5.51748807,0 3.55443038,0 C1.59137269,0 0,1.6370911 0,3.65654531 C0,5.67599952 1.59137269,7.31309062 3.55443038,7.31309062 Z" stroke="#2bd18f" stroke-width="1.44" fill="none" stroke-linejoin="round"></path></g><g transform="translate(1.7012658227849906 0.0)"><path d="M0,16.2512678 C0,13.8138147 2.76455696,9.7507428 7.70126582,9.7507428 C7.70126582,9.7507428 7.70126582,9.7507428 7.70126582,9.7507428 C7.70126582,9.7507428 8.79081722,9.7507428 9.98482937,10.1940786 C11.1545134,10.6283949 12.6379747,11.0300055 12.6379747,9.7507428 L12.6379747,9.7507428 L12.6379747,1.52356461 C12.6379747,0.682124465 13.3010339,0 14.1189873,0 L14.1189873,0 C14.9369408,0 15.6,0.682120402 15.6,1.52356055 L15.6,16.2512678" stroke="#2bd18f" stroke-width="1.44" fill="none" stroke-linecap="round" stroke-miterlimit="10"></path></g><g transform="translate(0.5012658227849442 16.38518518518518)"><path d="M0,0.207407407 L18,0.207407407" stroke="#2bd18f" stroke-width="1.44" fill="none" stroke-linecap="round" stroke-linejoin="round"></path></g></g></g></g></g></svg>
