<?xml version="1.0" encoding="UTF-8"?><svg version="1.1" width="20px" height="20px" viewBox="0 0 20.0 20.0" xmlns="http://www.w3.org/2000/svg" xmlns:xlink="http://www.w3.org/1999/xlink"><defs><clipPath id="i0"><path d="M1280,0 L1280,1087 L0,1087 L0,0 L1280,0 Z"></path></clipPath></defs><g transform="translate(-224.0 -192.0)"><g clip-path="url(#i0)"><g transform="translate(200.0 124.0)"><g transform="translate(0.0 60.0)"><g transform="translate(24.0 8.0)"><g transform="translate(2.5 4.0)"><path d="M6,0 L0.75,0 C0.33578625,0 0,0.35816 0,0.8 L0,11.2 C0,11.64184 0.33578625,12 0.75,12 L14.25,12 C14.664225,12 15,11.64184 15,11.2 L15,10.2" stroke="#8A8E9A" stroke-width="1.5" fill="none" stroke-linecap="round" stroke-linejoin="round"></path><g transform="translate(2.25 4.999999999999998)"><path d="M0,0.2 L3,0.2" stroke="#8A8E9A" stroke-width="1.5" fill="none" stroke-linecap="round" stroke-miterlimit="10"></path></g><g transform="translate(2.25 8.199999999999998)"><path d="M0,0.2 L9,0.2" stroke="#8A8E9A" stroke-width="1.5" fill="none" stroke-linecap="round" stroke-miterlimit="10"></path></g><g transform="translate(9.0 0.0)"><path d="M2.25,4.8 C3.49264069,4.8 4.5,3.7254834 4.5,2.4 C4.5,1.0745166 3.49264069,0 2.25,0 C1.00735931,0 0,1.0745166 0,2.4 C0,3.7254834 1.00735931,4.8 2.25,4.8 Z" stroke="#8A8E9A" stroke-width="1.5" fill="none" stroke-linecap="round" stroke-linejoin="round"></path></g><g transform="translate(8.231324999999996 4.799999999999998)"><path d="M6.768675,2.56748 C6.036225,1.04092 4.5186375,0 3.0186375,0 C1.5186375,0 0.7713375,0.45316 0,1.2" stroke="#8A8E9A" stroke-width="1.5" fill="none" stroke-linecap="round" stroke-linejoin="round"></path></g></g></g></g></g></g></g></svg>